<svg width="147.524" height="156.808" viewBox="0 0 147.524 156.808" fill="none" xmlns="http://www.w3.org/2000/svg">
<g id="Eloelo Logo">
<path id="Vector" d="M125.83 136.527H22.1303C16.1863 136.527 11.3506 131.66 11.3506 125.677V36.5087C11.3506 30.5258 16.1863 25.6584 22.1303 25.6584H125.83C131.774 25.6584 136.61 30.5258 136.61 36.5087V125.677C136.61 131.66 131.774 136.527 125.83 136.527Z" fill="white"/>
<path id="Vector_2" d="M110.047 12.5096H95.7412C98.6964 10.0083 99.0993 5.58027 96.6479 2.57193C94.1628 -0.436408 89.7301 -0.875828 86.7077 1.62549L73.6781 12.4758C73.6445 12.4758 73.6445 12.5096 73.6109 12.5096H73.4766C73.443 12.5096 73.443 12.4758 73.4094 12.4758L60.3797 1.62549C57.391 -0.875828 52.9246 -0.436408 50.4396 2.57193C47.9881 5.58027 48.3911 10.0083 51.3463 12.5096H37.4099C16.8244 12.5096 0 29.4442 0 50.1645V109.486C0 126.928 11.9215 141.665 27.9735 145.924L27.5705 146.905C26.0257 150.487 27.6712 154.679 31.2645 156.234C32.1712 156.639 33.1115 156.808 34.0518 156.808C36.7719 156.808 39.3912 155.22 40.533 152.516L42.8501 147.141H104.204L106.521 152.516C107.663 155.186 110.282 156.808 113.002 156.808C113.942 156.808 114.883 156.606 115.789 156.234C119.349 154.679 121.028 150.521 119.483 146.905L119.114 146.026C135.367 141.936 147.524 127.063 147.524 109.486V50.1645C147.457 29.4442 130.632 12.5096 110.047 12.5096V12.5096ZM133.957 106.816C133.957 120.979 122.439 132.573 108.368 132.573H38.6524C24.5817 132.573 13.0632 120.979 13.0632 106.816V50.9419C13.0632 36.7791 24.5817 25.1852 38.6524 25.1852H108.368C122.439 25.1852 133.957 36.7791 133.957 50.9419V106.816Z" fill="url(#paint0_linear_0_131)"/>
<path id="Vector_3" d="M113.942 46.852C117.299 46.852 120.021 44.1128 120.021 40.7339C120.021 37.355 117.299 34.6158 113.942 34.6158C110.585 34.6158 107.864 37.355 107.864 40.7339C107.864 44.1128 110.585 46.852 113.942 46.852Z" fill="#DC0215"/>
<path id="Vector_4" d="M110.047 81.5325C110.047 89.6111 107.663 97.4868 103.23 104.18C98.7635 110.872 92.4502 116.111 85.0622 119.187C77.6743 122.263 69.5139 123.075 61.6558 121.52C53.7977 119.931 46.5777 116.078 40.9024 110.365C35.2271 104.653 31.3652 97.3854 29.8205 89.4759C28.2421 81.5663 29.0481 73.3525 32.1376 65.9162C35.1935 58.4798 40.3987 52.0914 47.0478 47.5958C53.697 43.1001 61.5551 40.734 69.5475 40.734C80.2936 40.734 90.6032 45.0268 98.1926 52.666C105.782 60.3389 110.047 70.716 110.047 81.5325Z" fill="url(#paint1_radial_0_131)"/>
<path id="Vector_5" d="M29.0145 81.5325C29.0145 88.428 30.7608 95.2221 34.0853 101.273C37.4099 107.323 42.1785 112.393 47.9881 116.078H91.0398C96.8494 112.393 101.618 107.323 104.943 101.273C108.267 95.2221 110.013 88.428 110.013 81.5325C110.013 74.6369 108.267 67.8428 104.943 61.7924C101.618 55.7419 96.8494 50.6716 91.0398 46.9873H47.9881C42.1785 50.6716 37.3763 55.7419 34.0853 61.7924C30.7608 67.8428 29.0145 74.6031 29.0145 81.5325Z" fill="url(#paint2_linear_0_131)"/>
<path id="Vector_6" d="M29.0145 81.5324C29.0145 91.5039 32.6413 101.137 39.2233 108.607H99.8381C106.42 101.137 110.047 91.5039 110.047 81.5324C110.047 71.561 106.42 61.9275 99.8381 54.4574H39.2233C32.6413 61.9275 29.0145 71.561 29.0145 81.5324Z" fill="url(#paint3_linear_0_131)"/>
<path id="Vector_7" d="M29.0145 81.4986C29.0145 87.3801 30.257 93.1602 32.7085 98.5008H106.353C108.771 93.1602 110.047 87.3801 110.047 81.4986C110.047 75.6172 108.804 69.8371 106.353 64.4965H32.7085C30.257 69.8371 29.0145 75.651 29.0145 81.4986Z" fill="url(#paint4_linear_0_131)"/>
<path id="Vector_8" d="M29.0145 81.5326C29.0145 84.9804 29.4511 88.3943 30.2906 91.7069H108.737C110.45 85.0142 110.45 78.0172 108.737 71.3583H30.2906C29.4511 74.6709 29.0145 78.0848 29.0145 81.5326Z" fill="url(#paint5_linear_0_131)"/>
<path id="Vector_9" d="M66.2901 40.8691C56.1484 41.6803 46.6448 46.3111 39.727 53.8489C32.8092 61.3866 28.9809 71.2567 28.9809 81.5323C28.9809 91.808 32.8092 101.678 39.727 109.216C46.6448 116.754 56.1148 121.384 66.2901 122.196C76.4317 121.384 85.9353 116.754 92.8531 109.216C99.7709 101.678 103.599 91.808 103.599 81.5323C103.599 71.2567 99.7709 61.3866 92.8531 53.8489C85.9353 46.3111 76.4653 41.6803 66.2901 40.8691Z" fill="url(#paint6_radial_0_131)"/>
<path id="Vector_10" d="M68.3721 44.5872C66.9953 44.3844 65.5849 44.3844 64.1744 44.5872C55.3425 45.8379 47.2493 50.2659 41.4061 57.06C35.5629 63.8541 32.3391 72.5411 32.3391 81.4985C32.3391 90.4559 35.5629 99.1767 41.4061 105.937C47.2493 112.731 55.3425 117.159 64.1744 118.41C65.5513 118.613 66.9617 118.613 68.3721 118.41C77.2041 117.159 85.2973 112.731 91.1405 105.937C96.9837 99.1429 100.207 90.4559 100.207 81.4985C100.207 72.5411 96.9837 63.8203 91.1405 57.06C85.2973 50.2659 77.2041 45.8379 68.3721 44.5872V44.5872Z" fill="url(#paint7_radial_0_131)"/>
<path id="Vector_11" d="M93.2226 81.5324C93.2226 65.1049 81.0996 51.787 66.1222 51.787C51.1448 51.787 39.0218 65.1049 39.0218 81.5324C39.0218 97.9599 51.1448 111.278 66.1222 111.278C81.0996 111.278 93.2226 97.9599 93.2226 81.5324V81.5324Z" fill="url(#paint8_radial_0_131)"/>
<path id="Vector_12" d="M73.5773 52.9024C70.2191 51.8546 66.5923 51.8546 63.2342 52.9024C57.391 55.0995 52.3873 59.0881 48.8612 64.2597C45.3352 69.4314 43.4882 75.5832 43.5889 81.8703C43.6561 88.1574 45.6374 94.2417 49.2978 99.3457C52.9246 104.45 58.029 108.303 63.9058 110.365C66.861 111.21 69.9841 111.21 72.9057 110.365C78.7824 108.303 83.8869 104.45 87.5137 99.3457C91.1405 94.2417 93.1218 88.1574 93.2225 81.8703C93.2897 75.5832 91.4427 69.4652 87.9502 64.2597C84.4242 59.0881 79.4205 55.0995 73.5773 52.9024V52.9024Z" fill="url(#paint9_radial_0_131)"/>
<path id="Vector_13" d="M81.9727 89.2056C81.2339 90.3548 80.3272 91.4027 79.2862 92.3153C76.8683 94.4786 74.0139 96.1011 70.9243 97.0813C67.8348 98.0616 64.5774 98.3658 61.3536 97.9602C59.3387 97.8926 57.4245 97.1827 55.8126 95.9321C54.2343 94.6814 53.0589 92.9913 52.488 91.0309C48.8612 79.3355 58.9693 63.3474 70.9915 62.0291C74.6855 61.6235 78.6145 61.3193 80.7973 65.3755C81.5697 67.336 81.704 69.4655 81.1667 71.4936C80.663 73.5217 79.5212 75.3469 77.9093 76.699C74.4504 79.0989 70.7229 81.0594 66.7602 82.4791C64.7117 83.2903 62.764 83.5607 62.9319 86.3324C63.0998 89.1042 63.6036 91.5717 66.7266 92.5181C73.3086 94.5124 84.4913 85.2508 81.9727 89.2056V89.2056ZM64.1073 79.9777C67.096 79.9777 69.9841 78.8961 72.2004 76.9018C74.4504 74.9075 75.8608 72.1696 76.2302 69.1951C76.2302 68.4852 76.0959 67.7754 75.8273 67.1332C75.5586 66.4909 75.1556 65.9163 74.6183 65.4093C74.0139 65.2065 73.3422 65.1727 72.7378 65.3079C72.0997 65.4431 71.5288 65.7135 71.0251 66.1191C67.0625 69.7021 64.611 74.6371 64.1073 79.9777V79.9777Z" fill="#B06505"/>
</g>
<defs>
<linearGradient id="paint0_linear_0_131" x1="73.762" y1="153.854" x2="73.762" y2="5.42816" gradientUnits="userSpaceOnUse">
<stop stop-color="#A949EF"/>
<stop offset="0.51" stop-color="#4401FF"/>
</linearGradient>
<radialGradient id="paint1_radial_0_131" cx="0" cy="0" r="1" gradientUnits="userSpaceOnUse" gradientTransform="translate(67.061 80.1282) scale(42.2354 42.512)">
<stop stop-color="#FFA700"/>
<stop offset="0.32" stop-color="#FCA300"/>
<stop offset="0.67" stop-color="#F39600"/>
<stop offset="1" stop-color="#E58200"/>
</radialGradient>
<linearGradient id="paint2_linear_0_131" x1="69.5139" y1="75.1" x2="69.5139" y2="147.986" gradientUnits="userSpaceOnUse">
<stop stop-color="#E58200" stop-opacity="0"/>
<stop offset="0.04" stop-color="#E27F04" stop-opacity="0.04"/>
<stop offset="0.47" stop-color="#C15D2F" stop-opacity="0.47"/>
<stop offset="0.8" stop-color="#AD4949" stop-opacity="0.8"/>
<stop offset="1" stop-color="#A64153"/>
</linearGradient>
<linearGradient id="paint3_linear_0_131" x1="57.8779" y1="105.562" x2="102.76" y2="14.2043" gradientUnits="userSpaceOnUse">
<stop stop-color="#E58200" stop-opacity="0"/>
<stop offset="0.04" stop-color="#E27F04" stop-opacity="0.04"/>
<stop offset="0.47" stop-color="#C15D2F" stop-opacity="0.47"/>
<stop offset="0.8" stop-color="#AD4949" stop-opacity="0.8"/>
<stop offset="1" stop-color="#A64153"/>
</linearGradient>
<linearGradient id="paint4_linear_0_131" x1="59.3018" y1="64.3917" x2="91.4907" y2="117.528" gradientUnits="userSpaceOnUse">
<stop stop-color="#E58200" stop-opacity="0"/>
<stop offset="0.04" stop-color="#E27F04" stop-opacity="0.04"/>
<stop offset="0.47" stop-color="#C15D2F" stop-opacity="0.47"/>
<stop offset="0.8" stop-color="#AD4949" stop-opacity="0.8"/>
<stop offset="1" stop-color="#A64153"/>
</linearGradient>
<linearGradient id="paint5_linear_0_131" x1="67.7778" y1="95.371" x2="74.1013" y2="45.7437" gradientUnits="userSpaceOnUse">
<stop stop-color="#E58200" stop-opacity="0"/>
<stop offset="0.04" stop-color="#E27F04" stop-opacity="0.04"/>
<stop offset="0.47" stop-color="#C15D2F" stop-opacity="0.47"/>
<stop offset="0.8" stop-color="#AD4949" stop-opacity="0.8"/>
<stop offset="1" stop-color="#A64153"/>
</linearGradient>
<radialGradient id="paint6_radial_0_131" cx="0" cy="0" r="1" gradientUnits="userSpaceOnUse" gradientTransform="translate(56.098 70.9964) scale(56.7462 57.1178)">
<stop stop-color="#FFC738"/>
<stop offset="0.28" stop-color="#FFC534"/>
<stop offset="0.54" stop-color="#FFBF29"/>
<stop offset="0.78" stop-color="#FFB417"/>
<stop offset="1" stop-color="#FFA700"/>
</radialGradient>
<radialGradient id="paint7_radial_0_131" cx="0" cy="0" r="1" gradientUnits="userSpaceOnUse" gradientTransform="translate(75.5088 81.3425) scale(35.3448 35.7395)">
<stop stop-color="#FFFCF8"/>
<stop offset="0.95" stop-color="#FFFCF8" stop-opacity="0.05"/>
<stop offset="1" stop-color="#FFFCF8" stop-opacity="0"/>
</radialGradient>
<radialGradient id="paint8_radial_0_131" cx="0" cy="0" r="1" gradientUnits="userSpaceOnUse" gradientTransform="translate(93.6331 105.174) scale(42.3975 46.5918)">
<stop stop-color="#FFA700"/>
<stop offset="0.32" stop-color="#FCA300"/>
<stop offset="0.67" stop-color="#F39600"/>
<stop offset="1" stop-color="#E58200"/>
</radialGradient>
<radialGradient id="paint9_radial_0_131" cx="0" cy="0" r="1" gradientUnits="userSpaceOnUse" gradientTransform="translate(123.575 70.8228) scale(43.2082 43.4912)">
<stop stop-color="#FFC738"/>
<stop offset="0.28" stop-color="#FFC534"/>
<stop offset="0.54" stop-color="#FFBF29"/>
<stop offset="0.78" stop-color="#FFB417"/>
<stop offset="1" stop-color="#FFA700"/>
</radialGradient>
</defs>
</svg>
